<?xml version="1.0" standalone="no"?>
<!DOCTYPE svg PUBLIC "-//W3C//DTD SVG 20010904//EN"
 "http://www.w3.org/TR/2001/REC-SVG-20010904/DTD/svg10.dtd">
<svg version="1.0" xmlns="http://www.w3.org/2000/svg"
 width="813.000000pt" height="813.000000pt" viewBox="0 0 813.000000 813.000000"
 preserveAspectRatio="xMidYMid meet">
<metadata>
Created by potrace 1.14, written by Peter Selinger 2001-2017
</metadata>
<g transform="translate(0.000000,813.000000) scale(0.100000,-0.100000)"
fill="#000000" stroke="none">
<path d="M3048 8120 c-9 -6 -21 -25 -27 -43 -10 -30 -60 -235 -65 -267 -1 -8
-5 -24 -9 -35 -3 -11 -8 -31 -11 -45 -2 -14 -21 -95 -41 -180 -20 -85 -39
-164 -41 -176 -2 -12 13 -63 34 -115 31 -76 65 -174 88 -254 14 -48 54 -206
58 -230 7 -36 12 -63 27 -133 6 -29 12 -67 15 -85 2 -17 6 -50 9 -72 3 -22 8
-56 10 -75 2 -19 6 -53 9 -75 26 -196 26 -876 0 -1007 -2 -13 -6 -50 -9 -83
-6 -64 -12 -114 -19 -155 -3 -14 -7 -47 -11 -75 -6 -51 -11 -85 -20 -140 -3
-16 -8 -48 -10 -70 -3 -22 -10 -65 -15 -95 -5 -30 -12 -73 -15 -95 -3 -22 -8
-51 -11 -65 -12 -65 -14 -77 -20 -115 -15 -99 -113 -555 -128 -595 -3 -8 -7
-26 -10 -40 -6 -34 -76 -290 -116 -420 -43 -145 -180 -582 -187 -600 -3 -8 -7
-19 -8 -25 -2 -5 -15 -48 -30 -95 -15 -47 -28 -92 -30 -100 -2 -8 -20 -66 -39
-129 -41 -128 -41 -131 -23 -131 51 0 137 150 229 400 52 141 116 324 122 350
3 8 10 29 17 45 7 17 13 33 14 38 2 4 4 9 5 12 1 3 3 8 4 13 1 4 39 120 85
257 45 138 84 258 86 268 2 9 7 22 10 27 3 5 8 18 10 27 2 10 23 86 48 168 25
83 53 177 63 210 21 72 19 66 27 85 3 8 8 33 12 55 4 22 10 44 13 50 4 5 7 15
9 20 1 6 18 71 38 145 20 74 38 144 40 155 3 11 16 70 31 130 14 61 28 117 29
125 31 143 65 309 70 338 3 21 8 49 11 62 20 95 43 256 59 415 2 22 7 78 10
125 7 121 16 241 20 271 22 189 22 742 0 924 -2 17 -7 64 -11 105 -3 41 -8 83
-10 93 -2 9 -6 25 -8 35 -2 9 -7 39 -10 66 -15 107 -88 406 -106 431 -4 6 -13
28 -20 50 -12 39 -104 227 -125 254 -28 37 -78 81 -93 81 -9 0 -25 -5 -34 -10z"/>
<path d="M2855 5779 c-3 -14 -8 -34 -10 -45 -2 -10 -4 -19 -5 -19 -3 0 -9 -38
-15 -89 -3 -27 -7 -52 -9 -55 -2 -3 -7 -33 -11 -66 -3 -33 -10 -78 -15 -100
-5 -22 -11 -58 -15 -81 -3 -22 -10 -55 -15 -73 -5 -17 -9 -34 -9 -36 -1 -28
-22 -115 -75 -320 -2 -5 -6 -23 -11 -40 -57 -220 -252 -771 -350 -990 -13 -27
-49 -108 -80 -180 -55 -125 -111 -243 -195 -418 -22 -45 -40 -88 -40 -94 0 -7
-4 -13 -10 -13 -5 0 -10 -4 -10 -9 0 -5 -15 -42 -34 -83 -19 -40 -60 -134 -91
-208 -31 -74 -60 -144 -65 -155 -22 -48 -45 -109 -91 -235 -28 -74 -53 -142
-56 -150 -3 -8 -7 -17 -8 -20 0 -3 -22 -70 -47 -150 -63 -197 -96 -311 -123
-430 -19 -80 -58 -279 -66 -335 -6 -38 -12 -81 -14 -95 -27 -175 -27 -557 0
-689 13 -66 48 -187 61 -212 8 -16 12 -29 10 -29 -3 0 9 -26 26 -57 110 -203
259 -299 468 -300 297 -3 531 195 766 647 28 52 51 100 53 105 1 6 11 30 22
55 12 25 32 74 45 110 13 36 29 74 34 85 9 18 119 347 124 370 7 29 28 103 37
125 5 14 11 34 13 46 2 12 25 97 51 190 25 93 48 177 50 187 27 128 92 280
151 355 53 66 163 150 178 135 2 -3 -1 -26 -8 -51 -17 -63 -34 -139 -41 -182
-3 -19 -8 -46 -10 -60 -30 -150 -38 -358 -16 -436 11 -42 83 -124 108 -124 7
0 13 -4 13 -9 0 -13 77 -30 117 -25 73 9 151 69 248 189 22 28 45 55 50 61 6
6 21 25 35 44 47 62 156 166 196 186 28 14 59 19 114 19 66 -1 84 -5 150 -37
41 -21 95 -49 120 -64 73 -43 87 -46 108 -23 25 26 63 106 95 199 44 129 97
305 99 331 2 27 -20 89 -31 89 -4 0 -17 9 -29 20 -12 12 -22 18 -22 15 0 -3
-12 1 -27 9 -47 24 -162 43 -270 45 -26 1 -31 5 -28 20 8 44 112 220 172 291
45 54 57 67 92 105 100 105 235 218 381 317 341 231 838 462 1295 603 175 53
173 52 185 94 6 20 15 45 20 56 5 11 27 72 51 135 23 63 61 164 85 223 66 161
58 195 -34 152 -52 -24 -135 -52 -179 -61 -13 -2 -35 -7 -50 -10 -65 -13 -203
-13 -254 1 -69 18 -175 67 -313 144 -60 33 -111 61 -113 61 -3 0 -25 12 -51
27 -26 16 -49 28 -52 29 -3 0 -23 8 -45 18 -247 110 -418 111 -620 3 -22 -11
-46 -27 -53 -34 -7 -7 -17 -13 -21 -13 -22 0 -201 -194 -201 -219 0 -6 -4 -11
-8 -11 -13 0 -96 -183 -117 -255 -9 -33 -21 -71 -25 -85 -9 -25 -15 -57 -25
-120 -3 -19 -7 -46 -10 -60 -15 -85 -19 -156 -19 -330 -1 -107 2 -225 7 -261
6 -62 5 -68 -19 -95 -63 -71 -139 -178 -180 -254 -16 -30 -34 -60 -41 -67 -6
-7 -14 -26 -18 -43 -4 -16 -11 -32 -16 -35 -5 -4 -9 -15 -9 -26 0 -10 -5 -19
-12 -19 -6 0 -9 -3 -6 -6 4 -3 -4 -35 -17 -71 -13 -36 -24 -68 -23 -72 0 -3
-1 -8 -2 -11 -1 -3 -4 -18 -6 -34 -9 -50 -52 -145 -85 -188 -36 -45 -115 -87
-170 -90 -69 -4 -103 10 -131 53 -25 39 -27 47 -24 143 2 55 11 133 19 171 9
39 18 82 20 95 3 14 13 57 22 95 9 39 19 79 21 90 10 41 11 131 3 148 -14 24
-27 22 -115 -23 -141 -70 -270 -165 -380 -280 -83 -86 -101 -109 -169 -210
-110 -165 -134 -221 -260 -595 -32 -93 -69 -199 -82 -235 -14 -36 -26 -69 -27
-75 -2 -5 -7 -19 -11 -30 -5 -11 -33 -83 -62 -160 -75 -192 -168 -392 -246
-524 -70 -118 -102 -162 -182 -245 -134 -138 -255 -162 -389 -79 -97 60 -176
185 -217 344 -22 85 -23 91 -35 199 -22 204 3 478 71 770 15 63 29 124 31 135
2 11 8 31 13 45 10 26 63 197 66 215 10 45 181 476 222 557 7 15 13 30 13 33
1 2 18 40 39 82 85 171 176 366 237 508 36 83 69 159 73 170 5 11 19 47 31 80
13 33 29 74 36 90 6 17 20 53 30 80 9 28 22 56 27 63 5 6 7 12 4 12 -3 0 13
53 35 118 22 64 41 124 43 132 3 8 25 89 50 180 25 91 47 174 50 185 2 11 8
44 14 73 6 30 13 57 15 60 2 4 7 28 11 52 3 25 8 52 10 60 2 8 6 31 9 50 3 19
8 45 10 57 3 12 7 49 11 82 3 33 7 68 9 78 9 47 28 320 27 383 -1 8 -1 40 -2
70 -1 66 -14 98 -24 59z m2610 -1375 c37 -8 87 -23 111 -34 24 -10 44 -17 44
-15 0 2 28 -10 62 -27 34 -16 69 -32 78 -34 8 -2 40 -10 70 -18 30 -8 69 -17
85 -20 17 -2 32 -5 35 -6 10 -2 -85 -49 -101 -50 -9 0 -22 -7 -29 -15 -7 -8
-19 -15 -27 -15 -27 0 -499 -242 -641 -328 -134 -82 -336 -225 -411 -292 -18
-16 -35 -30 -37 -30 -4 0 9 109 20 167 3 11 7 38 10 59 23 141 105 358 170
447 40 56 88 106 130 134 22 15 44 32 47 36 3 5 9 8 13 8 3 -1 23 6 44 15 20
9 51 18 67 21 17 3 31 6 33 8 9 9 169 1 227 -11z"/>
<path d="M5963 3484 c-29 -47 -166 -229 -175 -232 -4 -2 -8 -10 -8 -17 0 -7
-4 -15 -8 -17 -11 -5 -102 -125 -101 -135 0 -4 32 -33 71 -63 38 -30 75 -60
81 -65 7 -6 41 -33 77 -60 36 -28 67 -53 70 -57 3 -4 28 -23 55 -42 l48 -35
51 70 c28 39 84 115 124 170 39 55 72 104 72 109 0 6 4 10 10 10 14 0 43 61
33 69 -4 4 -30 25 -58 46 -71 56 -74 59 -88 70 -7 6 -37 30 -67 54 -30 25 -81
69 -112 99 l-57 55 -18 -29z"/>
<path d="M4061 1306 c-67 -90 -141 -184 -164 -210 -39 -42 -44 -45 -62 -32
-11 7 -115 77 -231 154 l-211 140 -121 -163 c-66 -89 -144 -188 -173 -219 -28
-31 -50 -58 -48 -60 2 -2 94 -65 204 -141 110 -76 213 -149 228 -162 38 -31
48 -29 77 15 14 20 27 39 30 42 3 3 34 43 68 90 35 47 68 92 75 100 9 11 83
114 113 158 3 4 43 -17 58 -30 6 -5 81 -57 166 -116 215 -149 224 -156 232
-167 5 -6 15 -2 27 10 15 16 147 192 259 344 9 13 27 38 40 54 12 17 22 36 22
41 0 6 -42 38 -93 71 -50 33 -94 62 -97 65 -9 9 -100 70 -105 70 -3 0 -27 15
-53 33 -26 18 -63 43 -83 55 l-35 21 -123 -163z"/>
</g>
</svg>
